<svg width="16" height="16" viewBox="0 0 16 16" fill="none" xmlns="http://www.w3.org/2000/svg">
<path d="M0.93934 12.9393C0.353553 13.5251 0.353553 14.4749 0.93934 15.0607C1.52513 15.6464 2.47487 15.6464 3.06066 15.0607L0.93934 12.9393ZM15.0607 3.06066C15.6464 2.47487 15.6464 1.52513 15.0607 0.93934C14.4749 0.353553 13.5251 0.353553 12.9393 0.93934L15.0607 3.06066ZM12.9393 15.0607C13.5251 15.6464 14.4749 15.6464 15.0607 15.0607C15.6464 14.4749 15.6464 13.5251 15.0607 12.9393L12.9393 15.0607ZM3.06066 0.93934C2.47487 0.353553 1.52513 0.353553 0.93934 0.93934C0.353553 1.52513 0.353553 2.47487 0.93934 3.06066L3.06066 0.93934ZM3.06066 15.0607L9.06066 9.06066L6.93934 6.93934L0.93934 12.9393L3.06066 15.0607ZM9.06066 9.06066L15.0607 3.06066L12.9393 0.93934L6.93934 6.93934L9.06066 9.06066ZM15.0607 12.9393L9.06066 6.93934L6.93934 9.06066L12.9393 15.0607L15.0607 12.9393ZM9.06066 6.93934L3.06066 0.93934L0.93934 3.06066L6.93934 9.06066L9.06066 6.93934Z" fill="#FF5A60"/>
</svg>
