<svg width="12" height="12" viewBox="0 0 12 12" fill="none" xmlns="http://www.w3.org/2000/svg">
<path d="M1 9.5V4.5C1 3.94771 1.44771 3.5 2 3.5H2.25C2.56475 3.5 2.86114 3.3518 3.05 3.1L4.16 1.62C4.21665 1.54446 4.30558 1.5 4.4 1.5H7.6C7.69445 1.5 7.78335 1.54446 7.84 1.62L8.95 3.1C9.13885 3.3518 9.43525 3.5 9.75 3.5H10C10.5523 3.5 11 3.94771 11 4.5V9.5C11 10.0523 10.5523 10.5 10 10.5H2C1.44771 10.5 1 10.0523 1 9.5Z" stroke="white" stroke-width="1.5" stroke-linecap="round" stroke-linejoin="round"/>
<path d="M6 8.5C7.10455 8.5 8 7.60455 8 6.5C8 5.39545 7.10455 4.5 6 4.5C4.89543 4.5 4 5.39545 4 6.5C4 7.60455 4.89543 8.5 6 8.5Z" stroke="white" stroke-width="1.5" stroke-linecap="round" stroke-linejoin="round"/>
</svg>
