<svg width="12" height="12" viewBox="0 0 12 12" fill="none" xmlns="http://www.w3.org/2000/svg">
<path d="M8.3316 1.52617C8.31726 1.51894 8.3013 1.51552 8.28525 1.51623C8.26921 1.51695 8.25361 1.52177 8.23997 1.53024C8.22632 1.53871 8.21508 1.55054 8.20732 1.5646C8.19956 1.57867 8.19555 1.59449 8.19566 1.61055V2.36289C8.19566 2.42734 8.22965 2.48711 8.28355 2.52227C8.54781 2.6886 8.79235 2.88438 9.01246 3.10586C9.39566 3.49023 9.69683 3.93672 9.9066 4.43359C10.1235 4.94797 10.2347 5.50074 10.2336 6.05898C10.2336 6.62266 10.1234 7.16992 9.9066 7.68438C9.69707 8.18053 9.39343 8.63141 9.01246 9.01211C8.63276 9.39404 8.18214 9.69817 7.6859 9.90742C7.17261 10.1254 6.62535 10.2355 6.06285 10.2355C5.50035 10.2355 4.95308 10.1254 4.4398 9.90742C3.94356 9.69817 3.49294 9.39404 3.11324 9.01211C2.73226 8.63141 2.42863 8.18053 2.2191 7.68438C2.00216 7.17 1.89097 6.61723 1.89215 6.05898C1.89215 5.49531 2.0023 4.94805 2.2191 4.43359C2.42886 3.93672 2.73004 3.49023 3.11324 3.10586C3.3359 2.8832 3.57965 2.68867 3.84215 2.52227C3.89722 2.48828 3.93004 2.42734 3.93004 2.36289V1.60938C3.93004 1.53906 3.85621 1.49453 3.7941 1.525C2.15465 2.35 1.02379 4.03867 1.00035 5.9957C0.967536 8.79414 3.25621 11.1191 6.05347 11.125C8.85425 11.1309 11.1253 8.85977 11.1253 6.05781C11.1253 4.075 9.98863 2.3582 8.3316 1.52617V1.52617ZM5.68785 6.625H6.43785C6.48941 6.625 6.5316 6.58281 6.5316 6.53125V1.09375C6.5316 1.04219 6.48941 1 6.43785 1H5.68785C5.63629 1 5.5941 1.04219 5.5941 1.09375V6.53125C5.5941 6.58281 5.63629 6.625 5.68785 6.625Z" stroke="#FF5A60" stroke-linejoin="round"/>
</svg>
