<svg  width="22" height="19" viewBox="0 0 23 16" fill="none" xmlns="http://www.w3.org/2000/svg">
<path d="M22.0029 7.39531C19.6885 2.71484 16.1899 0.359375 11.5 0.359375C6.80761 0.359375 3.31151 2.71484 0.997059 7.39766C0.904225 7.58637 0.856079 7.79247 0.856079 8.00117C0.856079 8.20987 0.904225 8.41598 0.997059 8.60469C3.31151 13.2852 6.81005 15.6406 11.5 15.6406C16.1924 15.6406 19.6885 13.2852 22.0029 8.60234C22.1909 8.22266 22.1909 7.78203 22.0029 7.39531V7.39531ZM11.5 13.9531C7.562 13.9531 4.6787 12.0359 2.64501 8C4.6787 3.96406 7.562 2.04688 11.5 2.04688C15.438 2.04688 18.3213 3.96406 20.355 8C18.3237 12.0359 15.4404 13.9531 11.5 13.9531ZM11.4023 3.875C9.02929 3.875 7.10546 5.72188 7.10546 8C7.10546 10.2781 9.02929 12.125 11.4023 12.125C13.7754 12.125 15.6992 10.2781 15.6992 8C15.6992 5.72188 13.7754 3.875 11.4023 3.875ZM11.4023 10.625C9.8911 10.625 8.66796 9.45078 8.66796 8C8.66796 6.54922 9.8911 5.375 11.4023 5.375C12.9136 5.375 14.1367 6.54922 14.1367 8C14.1367 9.45078 12.9136 10.625 11.4023 10.625Z" fill="#FF5A60"/>
</svg>
