<svg width="22" height="19" viewBox="0 0 22 19" fill="none" xmlns="http://www.w3.org/2000/svg">
<path d="M21.8599 8.5703C21.0074 6.83452 19.9929 5.4189 18.8164 4.32343L17.5826 5.51593C18.5887 6.44523 19.4652 7.66093 20.223 9.17499C18.2053 13.2109 15.3413 15.1281 11.4272 15.1281C10.2523 15.1281 9.17017 14.9533 8.18073 14.6036L6.84378 15.8957C8.218 16.509 9.7458 16.8156 11.4272 16.8156C16.0882 16.8156 19.5658 14.4695 21.8599 9.77734C21.9522 9.58863 22 9.38252 22 9.17382C22 8.96512 21.9522 8.75901 21.8599 8.5703ZM20.3183 1.0553L19.2845 0.0549912C19.2665 0.0375581 19.2451 0.0237284 19.2215 0.0142926C19.198 0.00485679 19.1727 0 19.1472 0C19.1217 0 19.0965 0.00485679 19.0729 0.0142926C19.0494 0.0237284 19.028 0.0375581 19.01 0.0549912L16.3576 2.61718C14.8953 1.8953 13.2518 1.53437 11.4272 1.53437C6.76618 1.53437 3.2886 3.88046 0.994469 8.57265C0.902255 8.76136 0.854431 8.96747 0.854431 9.17616C0.854431 9.38486 0.902255 9.59097 0.994469 9.77968C1.91099 11.6453 3.01441 13.1407 4.30471 14.2659L1.73849 16.7453C1.70213 16.7805 1.68171 16.8281 1.68171 16.8778C1.68171 16.9276 1.70213 16.9752 1.73849 17.0104L2.77376 18.0109C2.81014 18.0461 2.85946 18.0658 2.91089 18.0658C2.96233 18.0658 3.01165 18.0461 3.04803 18.0109L20.3183 1.32062C20.3363 1.3032 20.3506 1.28252 20.3604 1.25976C20.3702 1.237 20.3752 1.2126 20.3752 1.18796C20.3752 1.16332 20.3702 1.13892 20.3604 1.11616C20.3506 1.0934 20.3363 1.07272 20.3183 1.0553ZM2.6314 9.17499C4.6515 5.13905 7.51553 3.22187 11.4272 3.22187C12.7498 3.22187 13.9524 3.44124 15.0435 3.88726L13.3387 5.53491C12.5313 5.11858 11.6068 4.96406 10.7016 5.09416C9.79645 5.22426 8.95852 5.63208 8.31142 6.25747C7.66433 6.88286 7.24236 7.69269 7.10774 8.5675C6.97313 9.44231 7.133 10.3358 7.56379 11.1161L5.54078 13.0712C4.42112 12.1162 3.45593 10.8222 2.6314 9.17499ZM8.61409 9.17499C8.61452 8.76171 8.71581 8.35434 8.90974 7.986C9.10367 7.61765 9.38477 7.29872 9.7302 7.05509C10.0756 6.81147 10.4756 6.65003 10.8978 6.58389C11.3199 6.51775 11.7522 6.54877 12.1596 6.67444L8.74287 9.97655C8.65723 9.71743 8.61379 9.44701 8.61409 9.17499Z" fill="#FF5A60"/>
<path d="M11.3302 11.8001C11.2463 11.8001 11.1636 11.7964 11.0817 11.7891L9.80074 13.0271C10.5712 13.3122 11.4106 13.3756 12.2175 13.2095C13.0244 13.0434 13.7642 12.655 14.3476 12.0912C14.9309 11.5274 15.3328 10.8124 15.5046 10.0326C15.6765 9.25273 15.6109 8.44149 15.3159 7.6969L14.0349 8.93487C14.0425 9.01409 14.0463 9.09401 14.0463 9.1751C14.0465 9.51988 13.9764 9.8613 13.84 10.1799C13.7035 10.4984 13.5035 10.7879 13.2512 11.0317C12.999 11.2755 12.6995 11.4688 12.3699 11.6007C12.0403 11.7325 11.687 11.8003 11.3302 11.8001Z" fill="#FF5A60"/>
</svg>
